<svg xmlns="http://www.w3.org/2000/svg" viewBox="0 0 64 64" role="img" aria-label="Empreendedores do Reino">
  <rect width="64" height="64" rx="14" fill="#071622"/>
  <rect x="1" y="1" width="62" height="62" rx="13" fill="none" stroke="#42D6FF" stroke-opacity=".24" stroke-width="2"/>
  <g transform="translate(6 6) scale(.5416667)">
    <path fill="#F5B85B" d="M12 18a6 6 0 0 1 6-6h9v72h-9a6 6 0 0 1-6-6V18Z"/>
    <path fill="#42D6FF" d="M24 12h33c13.255 0 24 10.745 24 24S70.255 60 57 60H24V48h33c6.627 0 12-5.373 12-12s-5.373-12-12-12H24V12Z"/>
    <rect width="34" height="12" x="24" y="36" fill="#42D6FF" rx="4"/>
    <rect width="34" height="12" x="24" y="72" fill="#42D6FF" rx="4"/>
    <path fill="#42D6FF" d="M48 56h15l21 28H68L48 56Z"/>
  </g>
</svg>
